/* XPM */
static char *_2904b98de5d4e2aac3020e6aa8f47a3kPw8ph6pc5UGMDG8[] = {
/* columns rows colors chars-per-pixel */
"50 50 81 1 ",
"  c #8D6472",
". c #8D6B74",
"X c #966774",
"o c #926D76",
"O c #9A6C77",
"+ c #966F78",
"@ c #9A6F78",
"# c #927077",
"$ c #957279",
"% c #9B757B",
"& c #97787D",
"* c #9D7A7E",
"= c #A66D79",
"- c #A4767D",
"; c #A17B7F",
": c #9E7D80",
"> c #A37E81",
", c #A97E82",
"< c #9F8184",
"1 c #A58183",
"2 c #AB8385",
"3 c #A28688",
"4 c #A58A8B",
"5 c #AC8B8B",
"6 c #B18687",
"7 c #B98487",
"8 c #B18887",
"9 c #B48788",
"0 c #BA8688",
"q c #B48A89",
"w c #B48F8D",
"e c #B98A89",
"r c #BC8889",
"t c #BC8989",
"y c #BB8D8B",
"u c #BC8C8B",
"i c #BE8C8B",
"p c #BC8D8C",
"a c #BE8C8C",
"s c #BF8E8C",
"d c #AF908E",
"f c #B2918E",
"g c #B4918E",
"h c #BE908D",
"j c #BE908E",
"k c #BE918E",
"l c #AB9292",
"z c #B59390",
"x c #B69592",
"c c #B59794",
"v c #BC9490",
"b c #BE9591",
"n c #B59997",
"m c #B69996",
"M c #B79A97",
"N c #B89894",
"B c #BA9C99",
"V c #BA9E9A",
"C c #BBA09C",
"Z c #C08F8D",
"A c #C1908D",
"S c #C1918E",
"D c #C3928F",
"F c #C2938F",
"G c #C29390",
"H c #C39390",
"J c #C39490",
"K c #C09792",
"L c #C59691",
"P c #C69691",
"I c #C49792",
"U c #C69792",
"Y c #C49893",
"T c #C69894",
"R c #C49A94",
"E c #C79A94",
"W c #C79A95",
"Q c #C69B95",
"! c #C69C96",
"~ c #C69E99",
"^ c #C6A19C",
/* pixels */
"===== X=============X =============OX=============",
"07777+-07t00007t7777%-7e00000000777;O7t07000000777",
"IYIS6.;iDFYSDSYLYYSeo$eDDDIDYYYIIDt*.6SSIDHHIIYIIZ",
"IWWIS;;SDYDYYLLYUUYY2%iSIDSYDPUUUIYq$qSIDIHIIYYWPY",
";;>>;.+**;*;***>>>;>o.*;>;*;*;;;;;1$.;;*;*;%*;*;>:",
"ggBBgw266662,o28gNBwg5662262@;6gNCgg5266266@*8wcCk",
"SSIIYUSIYDDYk*ikFYYIIYDDYSFJ18hSDIYYDFDDIDY22SSS!D",
"giSFDSSISDYSk$12AtSIDDDYDYFF**2iZDDSDYYSSYD1%1ZiZI",
"WYIIIIIPPIIIk*ZYDYYDYYDYIIIS;eYWYDYIDYDYIYS,9YUIFI",
">>;;;;;;;1>;* *111;;;;;1>>1*.%>>>>;>;;>;>>>o$;1;;>",
"82222#%68gNNw5N82222%@28wcmw5Mw2122;O28gcvg5cg6222",
"itSD1#9YYYWUYYWZtSS9$,PYIIWIHWS0SSe%%FYYYWIIIItASk",
"ZZIWg%9FDISYDSDDZDUF;2FDIDIDIIZZDUI1;DFJJSJJDDASWW",
"IIIII1tDIIDIYPIYDYYY61IDIDIISIIIIIYi;IISYIGIDPDYII",
">1>1,o$;>>,1,>1,;111Oo>,>,1,,>>,>11%o>,1>,>1111;>>",
"2ww221122112;.;25w522112111>o*25g522,112121+@15gw2",
"LYYUYLSDZttZ1$DIYYYDYDDSttZ6#pISYYYYDDSS0te$6YDLLY",
"DYDDDFDDDIID6%SDDYDYFDDJIISe%pDIYDDDDYDDYDi%6YDYDY",
"YDDDYLSYIIIPS;SIYDLDDYYYIIIS>iIIDDDYIDDYDYY28PDYYL",
"222212221212;.,122222,22222>.*22222,1222221o$22211",
";>>2;o$12551>151>,>>$$;2552;>51>;>1;o;1555;125;>2>",
"DDtZi$6IIWYIDIIIDtii-;IYWIYYJYYYiAS;*YK!YYLDYDFAtA",
"YYUDZ$9IYSIDDYDIYYDA*2FFDIDDDDSYLYD;*DYFDDDDDSYLUA",
"DYUYP19DYDIYDIIILLYY82YFIIYDYYDYPYYZ;FDFYYYYYYLYYY",
"22222$*2222225222222%$2222222222822;$2222222222229",
"12ll21;>>>>>*.*15ll21*>>>>;;.*125l51;*>>>>>o$115d5",
"Y!!^RFDDJJJJp-kFYWQYWJDDDDIS;gDQU^YYDDDFYSF,6IIY^Q",
"DDDDFLFLSSSi2*SIIFDISYISSSZ8%iIDSDYSDYLFSk9;6IIDFF",
"FLYYLYYFSiS5%$DIIIISIIDIZSw*$eYYYYYIIIYtSi>#8IIIYY",
"8662888865g8,o28688866666w81o,66886868668g2$;86688",
";;*11.$*134g3%*;;**;$o*114l3***;**;%.*>34l4*%:;;**",
"iZki6$8DFW^~YSSkiSSq*>DYY!^!DFStiSi;%SYYQ^QFDSeSSk",
"ZZFU8#9FFLFLFFFFiSYg%1YDDDYDLFSAAYk*;FDYDDYFFFSSLD",
"FIYYY1qLFLDDLLFLYSYY62YDFDDUFYYLJYYe;YYFSYFFLDLYYY",
"w8w69O;gg99wq9qqw89w;%9qqqeq8qq8w8q1o698qqq9qq9qw9",
";34;;%%*****%.**141;%%******.%*141*-*******o$*>43:",
"DU^FYSFSiteh2$hFW^YYGGSZheZ9$qDY^YFFSSAZtii%2FD^RD",
"DIFFYFFSSkAA,$FFFJFFGGGGShA8ohFDDDLFFFSFAhq@6SFFFS",
"DYFSFFFSYYLLA;FLDSGSIGGIYEYA;iDYDYLYYKDDYYS19FFYFY",
"geigiehfgeee6#6ggpewqieqeqeq$2eggqeehqwegeg-;egiig",
"%%%**.#**14:$&:%%:%%#o*:<4>%&:*%**;$.%&141%%%*%*%%",
"kkiAi%2SK^^LkFFbkiyy*>vJ~^WSvJkSitZ1%kIW^KkSRkkkhh",
"KSSS8o1FFSDDYFIFGpGp$>kkkkIDJGISiFk*$kSSFDYADYJkkF",
"DDYYF;#-eFDYSFYFSWWJ2o*ekJIHGGIYKYSw#%2iFDYYIFFKYF",
"kigeh%;whNkkikkeywpp>%6wvvvpiepgeei2$2wkvveiikigZi",
"*<33*$$*%%*%$.$*:<3:&$%%*%%&.$%:43<%#&**%%%oo%*<33",
"kK^^NYkkkkkkw%gFJ~^JFvkkSpZp%6kDQ^RmkkkkSkS;1kFW^R",
"ikFFIFFDFSDDS$2pSJYSIGFIFISI*1iZFYFFIDSIFIY1%yikFD",
"YRYDYLSYFYDFS$2D!EYFDFDLDDYD*1FYQYYFFFYDLDF2;hLYYS",
"KDYYDDFDDLFLZ%hLIDDDDYFFFYFF*eYYYFFFYSYSDDY-2YYLYF"
};
