/* XPM */
static char *d10f94ceb61746a2cb7752e2812b1ec0PO4oQVZ4fwVTKExq[] = {
/* columns rows colors chars-per-pixel */
"50 50 191 2 ",
"   c #3C3751",
".  c #3F3851",
"X  c #5B3A4F",
"o  c #443751",
"O  c #4D3753",
"+  c #443951",
"@  c #4A3C53",
"#  c #533754",
"$  c #5B3755",
"%  c #523C53",
"&  c #5B3A52",
"*  c #673C4F",
"=  c #693C4F",
"-  c #733E4F",
";  c #7A3F4F",
":  c #633755",
">  c #6B3756",
",  c #643C52",
"<  c #6B3C52",
"1  c #733C52",
"2  c #7C3C53",
"3  c #4F4054",
"4  c #514155",
"5  c #5B4355",
"6  c #544758",
"7  c #544B5C",
"8  c #644254",
"9  c #6C4353",
"0  c #684856",
"q  c #674A58",
"w  c #6D4D59",
"e  c #734453",
"r  c #7A4653",
"t  c #754B56",
"y  c #7B4B56",
"u  c #754E59",
"i  c #794F58",
"p  c #77515B",
"a  c #7B525A",
"s  c #7D585E",
"d  c #833C54",
"f  c #8B3C54",
"g  c #933D53",
"h  c #9C3D54",
"j  c #A13F52",
"k  c #87404F",
"l  c #8D414F",
"z  c #99424F",
"x  c #8D4050",
"c  c #844C55",
"v  c #8B4E56",
"b  c #814D58",
"n  c #8A4F58",
"m  c #964050",
"M  c #924F56",
"N  c #8B5057",
"B  c #84545B",
"V  c #8A555B",
"C  c #84595E",
"Z  c #8D595C",
"A  c #935157",
"S  c #995357",
"D  c #935459",
"F  c #9C5659",
"G  c #915A5D",
"H  c #9D5A5B",
"J  c #A6434F",
"K  c #A34151",
"L  c #A25658",
"P  c #A35B5B",
"I  c #AB5D5B",
"U  c #B25E5B",
"Y  c #B85F5B",
"T  c #A5625E",
"R  c #AB645E",
"E  c #B4625D",
"W  c #BA645D",
"Q  c #B6685F",
"!  c #BA695F",
"~  c #875D60",
"^  c #915D60",
"/  c #9C5F60",
"(  c #A35F60",
")  c #866263",
"_  c #8A6565",
"`  c #896D6A",
"'  c #926363",
"]  c #9D6161",
"[  c #986B67",
"{  c #8C736E",
"}  c #96746D",
"|  c #97786F",
" . c #8D7671",
".. c #8C7A74",
"X. c #997C72",
"o. c #A66563",
"O. c #AD6461",
"+. c #A66A65",
"@. c #AE6864",
"#. c #A46F68",
"$. c #AA6F68",
"%. c #B76662",
"&. c #B66A61",
"*. c #BC6C61",
"=. c #B4746A",
"-. c #B17A6E",
";. c #C3665D",
":. c #C5695F",
">. c #C96A5F",
",. c #C46C62",
"<. c #CA6E61",
"1. c #D26F61",
"2. c #CD7263",
"3. c #C47469",
"4. c #CE7569",
"5. c #C57C6D",
"6. c #CE796B",
"7. c #D27463",
"8. c #D47668",
"9. c #DB7568",
"0. c #D37D6D",
"q. c #DD7E6C",
"w. c #E27E6C",
"e. c #8D817D",
"r. c #9A8175",
"t. c #9B867A",
"y. c #9B897E",
"u. c #B48373",
"i. c #B78D79",
"p. c #B9947D",
"a. c #BA987F",
"s. c #CF806F",
"d. c #C78271",
"f. c #CB8371",
"g. c #D58772",
"h. c #D58D76",
"j. c #D98C75",
"k. c #D79178",
"l. c #DD957A",
"z. c #E2816E",
"x. c #E58570",
"c. c #E68B73",
"v. c #E88D74",
"b. c #E99177",
"n. c #E59379",
"m. c #EB957A",
"M. c #E69C7D",
"N. c #EC9C7D",
"B. c #EEA17F",
"V. c #8D8583",
"C. c #9B8E83",
"Z. c #9B9087",
"A. c #9B928A",
"S. c #BB9C83",
"D. c #BBA087",
"F. c #BCA48B",
"G. c #BCA790",
"H. c #BCAA94",
"J. c #BCAE9B",
"K. c #E5A281",
"L. c #EFA482",
"P. c #EFA984",
"I. c #F1A682",
"U. c #F2AD86",
"Y. c #F2AE88",
"T. c #EFB38A",
"R. c #F4B48A",
"E. c #F9B58B",
"W. c #F5BB8E",
"Q. c #F9BA8E",
"!. c #F6BE90",
"~. c #F9BE90",
"^. c #F6C494",
"/. c #F9C393",
"(. c #F6C897",
"). c #FBCA97",
"_. c #F6CB9A",
"`. c #FBCC99",
"'. c #FFCE99",
"]. c #F7D09F",
"[. c #FED19E",
"{. c #FFD29E",
"}. c #F7D4A3",
"|. c #FFD5A1",
" X c #FDD5A3",
".X c #FFD9A6",
"XX c #FADBAB",
"oX c #F9DFB4",
"OX c #F9E2B5",
"+X c #F8E5BB",
"@X c #F9EAC3",
/* pixels */
"6 6 7 7 7 7 7 7 6 4 @ @ @ 6 6 6 6 7 7 7 7 7 7 7 7 7 7 7 7 7 7 6 6 O O @ 6 6 6 7 7 7 7 7 7 7 6 6 3 3 ",
"r.y.y.C.A.C.t.r.| [ C 5 w _ [ X.r.y.Z.A.Z.y.r.r.y.Z.A.A.A.y.r.} ' u q p ' | X.t.y.C.A.A.t.r.| [ C q ",
"^.}.XXOX+XOX].(.W.L.=.s o.j.R.^._.XXoX+X+XXX_.(.}.+X@X+XXX_.^.T.K.o.~ @.M.R.^.].XXOX+X+X}.(./.B.f.Z ",
"'.{.{..X.X|.{.{.).E.f.B +.M.~.'.`.{.{..X.X{.'.'.{..XXX.X.X'.'./.I.@.V =.U.).).'.{..X.X.X{.'.).Q.k.G ",
").).).).).).).).).E.d.B o.K./.).`.).).).).).`.).).).).).).).).).I.$.~ =.Y.).).).).).).).).).'./.k.^ ",
").).).).).).).).).R.d.B o.M.~.).`.).).).).).).).).).).).).).`./.L.$.~ =.U./.).).).).).).).)./.Q.k.^ ",
").).).).).).).).!.I.5.s o.n.R.).).).).).).).).).).).).).).).).R.L.o.~ =.L.W./._.`.).).`.).).^.U.g.Z ",
"/./.).).).).)./.R.m.3.B o.j.L.!.^.).).).).).).^.).).).).).)./.B.b.@.V @.b.I.!.).).).).^.)./.R.N.0.' ",
"R.W./././.W./.T.N.v.,.B o.q.b.I.W./.W./././.Q.^././././.W.W.U.m.x.o.Z @.x.m.Y.!.^.~./.!.^.R.B.v.6.G ",
"N.L.L.L.L.L.B.N.c.z.*.B o.0.x.b.N.L.L.L.B.L.L.L.B.B.P.B.L.B.m.x.w.o.Z @.w.x.m.L.L.L.L.L.I.N.v.z.4.G ",
"z.z.z.z.z.z.z.z.w.w.*.B P 8.w.z.z.z.z.z.z.z.z.z.z.z.z.z.z.z.z.z.w.P V O.q.q.w.w.w.z.z.z.z.z.z.w.3.Z ",
"4.4.4.4.4.4.4.4.4.4.I t D ;.4.4.4.4.4.4.4.4.4.4.2.4.4.4.4.4.4.4.<.D y F <.8.6.4.4.4.4.4.4.4.4.7.W c ",
"] ] ] ] ] ] ] ] / H c 8 e D ] ] ] ] ] ] ] ] ] ] ] ] ] ] / / / ] H e 8 r H ] ] ] ] ] ] ] ] ] ] H n < ",
"4 @ 3 % % 4 % 4 4 O O + @ @ % 4 % 3 4 3 % @ % 3 4 4 4 @ 3 3 3 3 @ + o @ @ % 4 @ % 3 @ 4 @ 4 4 3 @ @ ",
"o . o o o o o o o   o @ o o o o o o     o o o o o o o o                       o o o + o o o o o o + ",
"# $ , , * * , $ O O # $ , , = , $ $ @ # & , * * * , $ O + + . + + + +   + + O $ , , = = , $ # o O $ ",
"> d g z z g g f : X - g z z z z g 2 $ : d g g z z g f > # o # % X X 3 X @ o $ 2 g h z z m f > $ > f ",
"1 g j J J J J g > : 2 z J J J J h f : > f j J J J J h - # & > - - 9 = = X X : f h K J J J h 2 : > g ",
"> d l l l l k f * : e k l l l l x 2 $ > d l l k l g f = $ , ; f k k k k - X , 2 l l l l f f e X < f ",
"9 9 e = * = e e 8 , 0 = * * = r e 9 8 8 9 e = * = 9 e 8 5 9 = = * - r r 9 8 , 9 e < * = 9 e 9 8 8 e ",
"i B y 8 % 8 t i i s a e 3 X t y a a a a B i 8 X 5 r a s B i e & X 0 y a a B a a i 9 % X r i a B i y ",
"! *.W v 9 v E W ! ,.! L = r L ! *.*.*.*.*.W A 9 k R ! *.*.! P e e L ! *.*.*.*.*.W F 9 r I ! *.! *.U ",
"7.7.>.L 9 S :.7.7.7.1.W r v Y s.8.2.7.7.7.2.P r A ;.2.7.7.7.W c c E 2.2.7.7.7.7.1.R y v ;.7.7.7.<.>.",
"2.2.>.F t S :.,.2.2.>.E t v Y >.2.2.2.<.2.:.P t N ! <.<.2.>.W y c R >.2.2.2.2.2.>.P y v W 2.,.2.<.,.",
"T R T c 8 r L R R R R S * t D T R R R R R P v 8 r L T R R T S 9 9 M T R R R R R T v 8 e S R R R R L ",
"B V c e X e c N N a c y 5 * y Z Z N c c V v e 8 9 c N N B N r 8 8 y N Z N B i N N r 8 9 c V C N b c ",
"8 9 i t u t i t 5 X * t t t t i i 0 5 5 t t t t t i t 8 5 8 t t t i a t t 5 5 9 t t t t t t 8 X 8 e ",
"r A T T T T T S t * y P T T T T P M 8 9 N P T T T T F t * r H T T T T P N 9 9 v T T T T T H r 8 e F ",
"M W 2.7.2.7.2.:.N r F >.2.7.2.2.2.U r v E 1.2.7.2.7.:.A e S :.2.2.2.7.2.W y r E >.7.2.2.2.>.F r v ;.",
"S ! 2.7.2.7.2.<.N r L >.2.2.7.s.2.U t c W 2.2.2.7.7.>.S r S <.2.7.7.2.2.W y c E 1.7.7.7.7.>.F y D :.",
"c T Q Q *.Q Q E i t N Q ! Q Q Q Q F 9 r P Q Q Q Q Q E c 9 N E Q ! Q Q Q L e e L Q Q Q Q ! E N 9 c U ",
"= c Z D Z D Z c * X - N Z D G G A k X 8 c Z G Z G G v 9 X 9 N G G G G N k 8 * y Z G Z Z G N 9 & 9 c ",
"= - e 9 5 5 5 & @ + % 5 6 8 e e e - , = e e 9 8 8 e e < , = e , 8 9 r e 1 * = e e 9 5 5 5 5 O o @ & ",
"e - = X @           .   . O , 1 - - - - - 1 & @ # > 1 - - - , O # : 1 1 - - - - < : O .     . .     ",
"; ; - , O   +     +   . . # > 1 ; ; ; r ; - : # & 1 r ; r - > # # , 1 r ; ; r ; 1 , O . . . . . +   ",
"X X X O .               . @ # X X X X & X # # o O # X X X X # + o # X X X X X $ $ # + .       .     ",
"@ o + @ + + @ @ @ @ @ @ @ @ @ @ @ @ @ @ @ @ @ @ o o @ @ @ @ @ @ @ @ @ @ @ @ @ @ + + @ @ @ 3 @ @ @ @ ",
"e X & 9 u s p u p p p p p p p p p p p p p p u 9 % & e p p p p p i p p p p p t & % 8 u p p i p p p p ",
"P e e S O.@.@.@.@.@.@.@.@.@.@.@.@.@.@.@.@.@.O.F 9 y H O.+.@.@.@.O.@.@.+.&.@.I b 9 N R @.@.R @.@.@.@.",
"7.N V %.q.q.q.q.z.z.q.q.z.q.q.z.z.q.q.z.q.q.9.,.c D <.q.z.q.q.z.z.z.q.q.q.q.8.H c I 9.q.z.0.z.z.q.q.",
"w.G G ,.w.c.b.m.n.m.m.m.m.m.m.m.m.m.m.m.b.c.w.4.B H 8.x.c.b.m.m.m.m.m.v.v.x.w.o.Z @.w.x.v.b.m.m.m.m.",
"w.^ ^ 3.x.m.L.U.U.T.U.T.U.T.U.U.Y.U.Y.U.I.m.c.4.~ ( 0.c.m.I.Y.Y.Y.Y.Y.U.L.c.x.o.Z &.x.v.L.U.Y.Y.U.U.",
"w.^ G 3.b.I.W./././././././././.)././.).!.P.m.5.B ] 0.m.Y.^.)./.)./././.R.L.c.o.~ @.c.L.!./.)./.^.).",
"c.^ G 5.L.W.).).`.`.`.`.`.).'.'.).).).).).E.L.0.~ ] g.I.~.).).).).).).).!.Y.m.+.Z =.m.R./.).).).).).",
"n.' Z d.R./.).).).).).).`.`.).).).).).).)./.R.f.V / k.R.).).).).).).).).).~.L.+.~ =.I.~.).).).).).).",
"n.^ ^ f.E.).).).).).).).).).).).).).).).'.).Q.g.~ / K.~.).).).).).).).).).).L.+.~ =.Y./.).).).).).).",
"m.' G f.R.).'.'.{. X|.|.'.`.'.{. X{. X'.).).W.h.~ ] l.Q.).'.{.|. X'. X'.`./.I.$.V =.P.).).).{.|. X X",
"n.^ ^ 5.L.^._._.XXoXoXXX_.)._.XXoXXX}.}.)./.Y.0.~ / h.Y.^.(.}.XXXXXX X_./.R.K.o.^ =.L.!.).).XXoXoXoX",
"$.u p [ -.p.S.S.H.J.J.G.S.S.S.G.J.H.F.D.S.p.u.[ u a #.i.p.S.F.H.J.G.F.S.S.i.=.s u ~ -.i.S.S.H.J.J.J.",
"s 0 5 p ) ` { ..V.V.V.V. .{ ..e.V.e.e...{ ` _ a 5 q s _ ` { ..V.V.e... .{ ` ~ 0 5 w _ `  . ...V.V.V."
};
