/* XPM */
static char *e7e0ea5569a14d33ee853b5c143f9637oJQZbFQ6MpYUzAJd[] = {
/* columns rows colors chars-per-pixel */
"50 50 150 2 ",
"   c #161010",
".  c #191312",
"X  c #241C1C",
"o  c #473738",
"O  c #4E3C3C",
"+  c #533F3E",
"@  c #56413F",
"#  c #53493F",
"$  c #645A3E",
"%  c #685E3E",
"&  c #6B623E",
"*  c #70663F",
"=  c #72683E",
"-  c #7A6D3A",
";  c #7C723E",
":  c #544342",
">  c #5B574C",
",  c #624C4E",
"<  c #705152",
"1  c #7A5D5A",
"2  c #676044",
"3  c #6C6441",
"4  c #706741",
"5  c #756943",
"6  c #786A43",
"7  c #7B6C4C",
"8  c #7F6F51",
"9  c #7B5F60",
"0  c #837434",
"q  c #807338",
"w  c #857B3D",
"e  c #83724F",
"r  c #816F53",
"t  c #847352",
"y  c #887356",
"u  c #857158",
"i  c #8A745C",
"p  c #846A65",
"a  c #866868",
"s  c #8D7564",
"d  c #9B7F67",
"f  c #93736D",
"g  c #957969",
"h  c #9A7C6D",
"j  c #8D6472",
"k  c #8D6B74",
"l  c #926C76",
"z  c #9A6C77",
"x  c #937176",
"c  c #9A7572",
"v  c #9E7B75",
"b  c #967379",
"n  c #9B757B",
"m  c #97787D",
"M  c #9D797E",
"N  c #A66D79",
"B  c #A07F77",
"V  c #A4767E",
"C  c #A17C7F",
"Z  c #A68D1E",
"A  c #B1941A",
"S  c #978229",
"D  c #8D843D",
"F  c #9C8A3A",
"G  c #A38B23",
"H  c #AB9638",
"J  c #A39B3D",
"K  c #B0A23A",
"L  c #B5AD3C",
"P  c #B8B13C",
"I  c #C8A50D",
"U  c #DBB40B",
"Y  c #CBAA19",
"T  c #D1AE17",
"R  c #DBB81C",
"E  c #E1B907",
"W  c #E2BB14",
"Q  c #E4BF1D",
"!  c #DCBB23",
"~  c #C2A832",
"^  c #CEB231",
"/  c #C3BB3C",
"(  c #E5C10A",
")  c #E7C114",
"_  c #E9C111",
"`  c #E5C11A",
"'  c #EBC61B",
"]  c #D0C63A",
"[  c #E6C425",
"{  c #E8C526",
"}  c #E7C72E",
"|  c #E8C72D",
" . c #EAC92E",
".. c #EFD72C",
"X. c #F3DF24",
"o. c #F2DC29",
"O. c #E7C631",
"+. c #E8C731",
"@. c #E8C931",
"#. c #EDD433",
"$. c #E3D438",
"%. c #E2DB3B",
"&. c #F0D734",
"*. c #F1DB34",
"=. c #F6E528",
"-. c #F9EC2F",
";. c #F4E236",
":. c #F9E636",
">. c #FCEB36",
",. c #F6E538",
"<. c #F4E939",
"1. c #FAED39",
"2. c #FCF335",
"3. c #FDF439",
"4. c #FFFA3B",
"5. c #9F806F",
"6. c #A48079",
"7. c #AB827F",
"8. c #9E7D80",
"9. c #A37E81",
"0. c #AA7E82",
"q. c #9F8184",
"w. c #A58183",
"e. c #AC8485",
"r. c #AC8983",
"t. c #A28688",
"y. c #A48A8B",
"u. c #AD8B8A",
"i. c #B28686",
"p. c #B98487",
"a. c #B28986",
"s. c #B58788",
"d. c #BA8688",
"f. c #B48A89",
"g. c #BC8D8C",
"h. c #B3918E",
"j. c #BE918E",
"k. c #AB9292",
"l. c #B59592",
"z. c #BE9591",
"x. c #B79996",
"c. c #B99A96",
"v. c #BA9E9A",
"b. c #BBA09C",
"n. c #C08F8D",
"m. c #C1928F",
"M. c #C49591",
"N. c #C59994",
"B. c #C59F99",
"V. c #C6A19C",
/* pixels */
"N N N N N j l N N N N N N N N N N N N N l j N N N N N N N N N N N N N z j N N N N N N N N N N N N N ",
"d.p.p.p.p.z V d.d.d.d.d.d.d.d.d.d.p.p.p.n V d.d.d.d.d.d.d.d.d.p.d.d.p.V z p.d.d.d.d.d.d.d.d.d.p.p.p.",
"M.N.M.m.s.k C g.m.M.M.M.M.M.M.N.N.N.m.d.x x d.m.M.M.m.M.M.M.M.N.M.M.g.n k a.M.M.m.M.M.M.M.N.N.M.M.n.",
"N.N.N.N.m.C V n.M.M.m.M.M.M.M.N.N.N.N.m.e.n j.m.M.M.M.M.M.M.N.N.N.N.M.s.b s.m.M.M.M.M.M.M.N.N.N.N.M.",
"C 8.9.9.C k x 9.C M C 8.C M C C C 9.9.C x l C M V 8.M M V M C 9.9.9.8.m k M C M C M C M M V 9.8.9.9.",
"f.h.v.v.f.h.e.e.i.i.e.i.0.l w.a.h.c.b.h.h.e.i.i.e.i.e.e.z 9.u.f.c.b.l.f.i.a.e.a.e.i.e.n M i.a.x.v.c.",
"z.M.M.N.M.M.M.M.M.m.M.M.j.M g.j.m.m.M.M.M.M.M.m.M.M.M.M.9.i.j.M.M.M.M.M.M.M.M.M.M.M.M.w.0.g.M.M.N.N.",
"f.g.n.m.M.M.M.M.M.M.m.M.g.b 9.u.n.n.m.M.M.M.M.M.M.M.M.M.n 9.e.g.g.n.M.M.M.M.m.M.M.M.M.0.M w.g.g.g.M.",
"N.N.M.M.M.M.M.M.M.M.M.M.j.V j.N.N.M.m.M.M.M.M.M.M.M.M.M.C s.N.N.N.m.N.M.M.M.m.M.M.M.M.e.e.N.N.m.M.M.",
"9.9.9.9.C 9.9.w.9.9.9.w.M k M 9.9.9.9.f s i u r 8 r u s p l w.C C C C C C 9.w.C 9.9.9.k x 0.9.C 9.9.",
"i.e.e.e.e.x n a.a.h.x.x.u.u.x.f.e.h 6 J 3 % & % % & % & % & J e v 6.r.M z w.f.h.x.x.l.a.x.h.i.e.e.e.",
"g.g.n.m.w.x s.M.M.N.N.M.N.M.N.d.= = = = = = * = = = = = = * * * = = y c M m.N.m.M.N.M.M.N.M.n.n.m.g.",
"n.n.N.B.g.n s.M.M.M.M.m.M.M.d & # % $ * J P P L L P P P P J * $ & # * = 6 M.M.M.M.M.M.M.M.m.n.m.N.N.",
"M.M.M.M.M.w.s.m.M.M.M.M.M.6 * # - w w D ] 3.3.3.3.3.1.1.2.] D w e - # * * = C M.M.M.M.M.M.m.M.M.M.M.",
"0.w.w.w.w.l n w.w.w.w.C g * * $ ; / %.%.#.&.&.#.#.#.#.#.#.#.%.%./ q $ * = = X 9 w.w.9.0.0.9.w.w.0.9.",
"e.u.h.e.e.w.0.w.w.w.e.e.* # $ D K $.>.,.@.O.} #.*.&.#.O.} &.:.>.$.K D $ # & * = a w.0.b b w.u.h.u.u.",
"M.N.N.M.M.M.M.M.j.d.d.= # = ; L <.&.@.@.@.@.@.,.3.3.;.@.@.@.@.@.*.<.K ; ; : = = < g.f.b a.M.M.N.N.M.",
"M.M.M.M.M.m.M.M.M.N.M.* & w / $.*.@.&.:.#.+.@.,.4.4.;.@.O.#.<.#.@.&.$./ w & = = . M.g.n s.m.m.M.m.m.",
"M.M.M.M.M.M.M.M.M.M.y = $ w %.>.O.O.*.3.*.+.@.;.4.4.;.@.} *.3.*.} O.>.%.w $ = & = 1 M.w.s.m.M.M.M.M.",
"e.0.0.e.e.0.e.e.e.e.J = & D %.:.@.O.*.3.*.O.@.;.4.4.;.@.O.*.3.*.O.@.1.%.D & = J = , e.x n e.e.w.w.r.",
"9.9.9.9.6.l b 9.y.u.% = J ] #.#.@.*.3.3.*.O.@.;.4.4.;.@.O.*.3.1.*.@.&.#.] J = % * @ w.9.u.e.w.w.w.0.",
"M.M.g.n.g.b a.N.M.N.& = P 3.*.O.@.1.4.4.*.O.O.;.4.4.;.O.O.*.4.4.1.@.O.&.3.P = & = @ M.m.N.N.m.n.n.n.",
"M.M.N.M.g.b a.M.m.m.% = P 3.#.O.@.:.4.4.*.O.@.;.4.4.,.O.O.*.3.4.1.@.} *.3.L = & = @ m.M.m.m.N.M.M.m.",
"M.N.M.M.m.7.d.N.N.a.& = K *.@.O.#.1.4.4.<.,.,.3.4.3.3.,.,.3.4.4.1.@.O.@.*.K * & = : M.M.M.M.m.N.N.M.",
"i.i.i.e.e.b M e.e.6.& = H @.@.O. .;.-.-.-.>.-.2.4.3.2.-.-.-.-.-.;. .@.@.@.H = 3 * O u.e.e.e.i.e.e.e.",
"9.t.k.k.t.9.9.9.9.C & = H @.@.@.| ) ( ( ( E ( =.4.4.X.( ( ( ( ( _ } @.@.@.H = & * o C l b w.w.y.k.u.",
"N.N.N.N.N.M.m.M.m.M.& = H @.@.@.} ` W W W W W o.4.4.o.W W W W W Q } @.@.O.H = & = + M.0.e.M.M.N.V.B.",
"M.M.M.M.M.M.m.M.m.m.& = H @.@.@.@.@.} @.} } O.;.4.4.;.@.} @.@.} @.@.@.@.@.H = & = + f.9.a.M.M.M.M.M.",
"M.M.M.M.M.M.M.M.m.g.& = H @.@.@.@.@.@.@.@.@.@.;.4.4.;.@.O.@.@.@.@.@.@.@.@.H = & = + 9.l i.M.M.M.M.M.",
"i.i.i.i.i.i.u.i.a.a.& * F ~ ! [ @.@.O.@.@.O.@.;.4.4.;.@.O.@.@.O.@.@.[ ! ~ F = 3 = + e.b M a.a.a.a.i.",
"8.9.9.8.9.l b 9.q.t.F = 4 0 I ) O.@.@.@.@.O.@.,.4.3.;.@.O.@.@.@.@.} _ I 0 5 = F 4 : y.M M C C C C M ",
"g.g.m.g.e.b e.M.N.N.a.= 3 0 I ) @.@.O.@.@.@.@.,.4.4.,.@.O.@.@.O.@.} _ I ; 2 = = 4 c N.M.m.m.g.g.m.j.",
"g.n.M.N.a.x a.M.M.M.N.= 3 0 A T [ } @.@.@.O.@...=.=.o.@.@.+.@.+.@.[ T A 0 3 = =   M.M.m.M.m.m.m.M.N.",
"M.M.M.N.M.w.s.N.M.M.m.= > = - G U [ @.@.@.@.@.` E E ` +.@.@.+.@.[ U G - = > = = c m.M.M.M.m.M.M.M.N.",
"s.a.s.s.f.n 9.f.s.f.f.f.h > 2 0 G T _ _ [ @.@.{ Q Q [ @.@.@. .' T G 0 2 > 3 = = B s.s.f.f.f.f.s.f.f.",
"8.y.y.9.M n n v M M M M n = & 3 - A I I R [ { { [ | [ | [ [ ^ Y A - 3 * * = , c M M M l x M w.y.t.C ",
"M.B.V.m.N.m.m.m.g.g.g.j.e.7 = > = 0 0 0 I E E E E U E E E Y w 0 - - > = * 5 i.g.g.g.g.n e.j.M.V.B.m.",
"M.M.m.M.N.m.M.m.n.m.g.j.w.n j.8 > 3 2 3 S Z Z Z Z Z Z Z A 0 & 2 & > 4 6 e f.m.m.m.n.f.b a.M.m.M.m.N.",
"m.M.m.m.M.m.m.M.M.N.N.M.j.C M.j.= = = = 4 4 = = = = = = = = = = = = e 7.m.m.N.N.N.M.M.w.s.M.M.M.m.m.",
"f.g.f.h.g.g.g.f.g.g.s.g.i.x s.f.5.y 5 S 3 3 3 & & & 3 3 & & S 5 7 t y f.g.f.g.f.s.g.d.M C f.g.f.g.f.",
"M M n M M k x M 8.t.y.8.n b 8.M M n r 7 7 5 = = = = = = 4 5 7 7 k b n b k M M w.y.t.M b 8.M n M M M ",
"j.g.g.g.f.n e.M.M.B.V.M.j.z.N.j.j.g.g.g.n n f.f.r.r.C c x f v 7.g.g.j.0.n j.z.N.V.N.j.j.M.z.z.g.g.g.",
"M.m.j.M.s.x e.j.m.m.m.m.M.M.m.m.m.g.M.g.b C m.m.m.m.m.M.m.M.M.z.j.m.h.C n g.m.m.m.M.M.m.M.M.M.g.m.m.",
"M.M.N.M.M.9.l 9.s.m.M.N.m.m.M.M.M.N.M.m.e.k M s.m.m.N.M.m.M.M.M.m.N.M.g.k n i.n.M.M.M.M.M.M.M.M.N.N.",
"g.g.g.g.h.v V a.g.z.m.h.j.h.g.j.h.g.g.g.9.b a.g.j.z.h.g.g.g.g.g.j.g.h.e.x u.s.h.z.j.h.j.g.g.g.g.h.g.",
"M 8.q.q.M b b M M M M M b k n M 8.q.y.8.M x M M M M M n k b M 8.q.y.M M x M M M M M n l l M M q.q.w.",
"z.N.V.V.N.N.j.m.h.g.j.j.d.n g.j.M.V.V.N.z.j.j.j.j.m.j.g.n i.z.M.V.V.N.N.m.j.j.j.j.j.n.V w.j.z.N.V.V.",
"g.j.N.z.M.m.m.M.m.m.m.N.j.x e.g.g.M.m.M.M.M.m.M.m.m.M.m.C 9.g.g.m.M.m.m.m.M.m.M.m.m.M.w.n g.j.j.m.M.",
"M.N.N.M.M.M.M.m.M.m.M.M.j.b i.M.N.N.M.M.M.m.M.M.m.M.M.M.M 9.M.M.N.M.M.M.M.M.M.m.M.M.M.w.C m.M.N.M.M.",
"N.M.M.M.m.M.M.M.M.m.M.m.g.n g.N.M.M.M.M.M.M.M.m.M.M.m.m.M d.N.M.M.m.M.M.m.M.M.M.m.M.m.6.e.M.N.M.M.M."
};
