/* XPM */
static char *ab38b089a1994d0dbd3a0c7a14fb3e39IWTJocwcUZOccIYH[] = {
/* columns rows colors chars-per-pixel */
"50 50 165 2 ",
"   c #5B4B3D",
".  c #694728",
"X  c #6D4B2C",
"o  c #714E2E",
"O  c #73512F",
"+  c #79512F",
"@  c #664C33",
"#  c #6A4D33",
"$  c #664F3C",
"%  c #764F30",
"&  c #6D5239",
"*  c #745132",
"=  c #7C5331",
"-  c #77573A",
";  c #7C5B3D",
":  c #454545",
">  c #4D4C4C",
",  c #574E46",
"<  c #584F47",
"1  c #514E4B",
"2  c #584F48",
"3  c #54504D",
"4  c #595048",
"5  c #545454",
"6  c #575758",
"7  c #5A5A5B",
"8  c #625448",
"9  c #7E5C41",
"0  c #666767",
"q  c #6A6A6B",
"w  c #727272",
"e  c #7D7D7D",
"r  c #805733",
"t  c #845B35",
"y  c #885E37",
"u  c #845E39",
"i  c #895F38",
"p  c #8B6037",
"a  c #87603B",
"s  c #8C6239",
"d  c #815F44",
"f  c #846144",
"g  c #896543",
"h  c #8D6945",
"j  c #83654C",
"k  c #85684F",
"l  c #8E6D4D",
"z  c #916B46",
"x  c #936F4C",
"c  c #95724F",
"v  c #866951",
"b  c #8A6C52",
"n  c #8A6E58",
"m  c #8B715D",
"M  c #937252",
"N  c #93765C",
"B  c #987B5F",
"V  c #8D7664",
"C  c #8F7C6D",
"Z  c #907763",
"A  c #917A66",
"S  c #927D6C",
"D  c #8D6372",
"F  c #8D6A75",
"G  c #906673",
"H  c #966875",
"J  c #9A6C77",
"K  c #947077",
"L  c #9D767D",
"P  c #9D7A7E",
"I  c #A66D79",
"U  c #A8717D",
"Y  c #A07C7F",
"T  c #94806F",
"R  c #958272",
"E  c #988678",
"W  c #9C8B7D",
"Q  c #9E7E81",
"!  c #AB7681",
"~  c #A37E81",
"^  c #AD7B84",
"/  c #848484",
"(  c #8D8782",
")  c #888887",
"_  c #8B8B8B",
"`  c #9F8183",
"'  c #978C83",
"]  c #9E8E82",
"[  c #9F9185",
"{  c #9C938B",
"}  c #939393",
"|  c #9C9C9C",
" . c #A58183",
".. c #AC8485",
"X. c #A38788",
"o. c #AE8789",
"O. c #A68C8E",
"+. c #AC8B8B",
"@. c #B48586",
"#. c #B98487",
"$. c #B18887",
"%. c #B3828D",
"&. c #BA8688",
"*. c #B48B8A",
"=. c #BD8D8C",
"-. c #A09185",
";. c #A3958A",
":. c #B2918F",
">. c #BD908E",
",. c #B68892",
"<. c #B98D94",
"1. c #AC9493",
"2. c #A59A92",
"3. c #A99F97",
"4. c #B69592",
"5. c #BE9390",
"6. c #B79B9C",
"7. c #BA9D9A",
"8. c #AAA097",
"9. c #ABA39C",
"0. c #BBA09C",
"q. c #BD9EA2",
"w. c #A3A3A3",
"e. c #AEA7A1",
"r. c #AFA8A2",
"t. c #A7A8A8",
"y. c #ACACAD",
"u. c #B5A0A3",
"i. c #B0A9A4",
"p. c #B2AEAB",
"a. c #B5B1AE",
"s. c #B4B4B4",
"d. c #B8B7B6",
"f. c #B9B8B7",
"g. c #BCBCBC",
"h. c #C08F8D",
"j. c #C1918E",
"k. c #C49591",
"l. c #C59995",
"z. c #C79C98",
"x. c #C89B98",
"c. c #C7A29C",
"v. c #C9A19D",
"b. c #C4A5A7",
"n. c #CCA7A3",
"m. c #C6A8A6",
"M. c #C9A8A5",
"N. c #CDAEAB",
"B. c #D0AFAC",
"V. c #CAB4B3",
"C. c #C7B9BB",
"Z. c #CCBDBC",
"A. c #D2B9B7",
"S. c #BFBFC0",
"D. c #C4BFC0",
"F. c #CABFC0",
"G. c #BFC0C0",
"H. c #C5C4C4",
"J. c #CAC5C5",
"K. c #CBCBCB",
"L. c #D3C6C5",
"P. c #D4C8C7",
"I. c #D4C9C8",
"U. c #E4E4E4",
"Y. c gray91",
/* pixels */
"I I I I I D H I I I I I I I I I I I I I G G I ! ^ ,.,.<.<.<.,.<.%.! I J D I I I I I I I I I I I I I ",
"&.#.#.#.@.J U &.#.#.&.&.&.&.#.j.b.P.K.K.K.K.I.K.K.K.J.K.K.K.K.I.I.J.Z.q.L &.&.&.&.&.&.&.&.&.&.#.#.#.",
"k.k.l.j.@.G W h.j.k.k.k.k.b.K.K.K.K.K.D.K.K.K.K.K.K.K.K.K.K.K.K.K.K.K.H.D.A.=.k.k.k.k.k.k.l.l.k.j.h.",
"l.l.l.k.k.Y Y h.k.k.k.M.K.H.K.H.H.K.K.H.K.K.H.K.K.D.K.K.K.K.K.D.H.K.K.H.K.K.I.B.k.k.k.k.k.k.l.l.l.l.",
"~ ~ ~ ~ Y F K ~ Q Q K.K.K.H.H.H.K.K.K.J.H.d.s.g.g.S.d.f.D.H.H.K.K.K.K.K.K.K.K.K.C.L Q L L ~ ~ Q  .Y ",
"*.:.7.7.*.*...o.*.K.K.K.K.K.H.K.K.D.g.g.g.s.s.f.g.g.s.s.S.g.g.S.H.K.K.K.H.H.H.K.K.J.$.K L $.*.4.0.4.",
">.k.k.k.k.k.k.k.K.H.H.K.K.K.K.H.S.y.t.s.r.2.E A q n S ] 3.a.s.s.s.g.H.K.K.K.K.K.K.K.P...^ >.k.k.k.l.",
"*.=.h.j.k.k.k.K.K.K.K.K.K.K.g.f.g.y.] V ; 9 v = . . = v v d C 2.d.S.g.g.K.K.K.K.K.K.K.V.L  .*.h.h.j.",
"l.l.k.k.k.k.K.K.K.K.K.K.H.p.y.d.;.j 9 A = x B s + o s B x = A f n 8.g.s.t.D.K.K.K.K.K.K.b.l.l.k.j.l.",
"~ ~ ~ ~ ~ u.K.K.K.K.K.H.y.y.p.A m u u l = y p s + o s s y + x u ; V W d.d.t.g.K.K.K.K.K.F.o.~ ~ ~ ~ ",
"$.........K.K.K.K.K.K.s.p.i.k o V z s y + y i s O O s y t = t s z N = m a.g.y.G.K.K.K.K.K.V.o.......",
"=.&.j.j.6.K.K.K.K.K.f.y.i.Z j r = p s y = p r s O o s t = = y s s r = k R a.f.y.K.K.K.K.K.L.=.=.h.h.",
"h.h.k.x.J.J.K.K.K.H.y.p.n f A p r s s y = y y s O o s t = = y s s t y B f Z d.s.g.K.K.K.K.J.n.j.l.l.",
"k.k.k.n.K.K.K.K.K.g.d.R o = s s t y y y = y s s + o y s y = y s s u p s = % W g.g.H.K.K.K.K.B.k.l.j.",
" . . .a.J.H.K.K.G.g.8.V v r s s y y p i + s s s o o s s i + t y s a s s r v C e.g.g.K.K.K.J.V.~  . .",
"..*.:.Z.K.K.K.H.s.s.m f g r s s s s s i = s s y X o s s s = u y s s s s = h d Z g.g.K.K.K.K.F.1.*...",
"j.l.z.P.K.K.K.H.s.2.9 r r t s s s s s u + y y s O O s s y + y s p s s s t = t 9 r.s.G.K.K.J.L.l.l.k.",
"k.k.l.I.K.K.K.G.f.E R z r y s s s s y t + y p s O o s s y + r y p p p a t t z R [ g.G.K.H.K.L.k.j.j.",
"k.k.l.I.K.K.K.G.d.v i y t t s s s y s y = s s s o o s s p + y s t t r u u r s a n f.G.H.H.K.L.l.k.k.",
".. .o.J.H.K.K.s.9.- r t r u p s s y s y = s s s O O s s s + y s p p p a t r t r ; p.G.K.H.K.F.o.....",
"~  ...L.K.K.H.y.2.m M = r u t p s s s y + p s s O O s s s + y s p p p p a = = M V 9.S.K.H.K.F. .~ ~ ",
"j.j.k.P.K.K.K.s.-.v c y t u p p s s p u = s s p O O s s p = y s s s p s p t p x b ;.S.K.K.K.L.5.h.h.",
"k.l.l.P.K.H.H.s.' * ; ; - ; 9 ; ; ; ; ; * ; ; ; o * ; ; ; * ; ; ; ; ; ; ; - ; ; * { H.K.K.K.L.k.k.h.",
"k.k.x.I.K.J.H.s._ > > > > 1 1 > > 1 1 1 > > > 3 # # 3 > > > 1 1 > > 1 1 1 > > > > _ G.K.K.K.L.l.l.l.",
"....*.J.K.H.K.s.) > 0 | w > > 0 | w > > q | q 1 @ @ 3 q | q > > w | 0 > > w | 0 > _ G.K.K.K.F.o.@...",
" .X.1.I.K.K.H.s._ > | U.f.1 > | Y.s.> > w.Y.y.3 @ @ 3 y.Y.w.> > s.Y.| 1 > d.U.| > _ G.K.K.K.J.+.1.+.",
"k.k.v.I.K.K.K.s.) : e s./ > > e s./ > > / s.e 1 @ @ 1 e s.e > > e s.e > > / s.e > _ g.K.J.K.L.z.z.z.",
"k.k.l.I.K.K.K.d.) : : 5 > > > > > > > : > 5 > 1 # X 1 > 5 1 > > > 5 > > > > 5 > : _ G.H.K.K.L.k.j.k.",
"k.k.x.I.K.K.H.s.' @ & & & & & - & & & & @ & & ; O O - - & $ & & - & & & & & & & @ { G.H.H.K.I.l.k.k.",
"$.$.*.J.K.K.K.f.-.V c s y p s p p s s u = p s s O * s s p = u p s s p s p p s c A ;.G.K.J.K.P.*.$.$.",
"~ Q X.J.K.K.K.s.] b z s y s s s s s s u = p s s O O s s p * t p s s s s s p s z b ;.G.K.K.K.J. .P Y ",
"=.=.l.I.K.K.H.S.] l z s p p y s s s p y = s s s X X s p p = p p s s s s s p s h b ;.g.K.K.K.L.j.j.>.",
"=.h.l.I.K.K.K.G.[ A c p s s u p s s s i = y s s * O s s p = u s s p p s s s s M T ;.g.H.K.K.I.5.k.l.",
"k.k.x.I.K.K.K.g.[ t s u s s s p s s p r = i y s O O s s p = = p s p i t s s s s p ;.g.H.K.K.I.z.l.k.",
"@.$.*.P.K.K.H.g.[ g s p p p p y s s p r = y t s O * s s p = t s s s i = s s s s s ;.d.H.K.K.P.*.&.*.",
"Q X.1.J.K.K.K.S.[ S M s s p u y s s a i = u p y O = s s p O p s s s s p s s s M R [ d.K.K.K.J.O.X.E ",
"k.l.c.I.K.K.K.g.] a s p p s s s s s s i = s s s O O s s s + t s a s p u s s s s a [ g.K.K.K.I.c.c.j.",
"k.k.l.I.K.K.K.g.[ S M p y y s s s p s p = y s s * O s s p + p s u s p p s p s M C { g.K.K.K.P.l.j.j.",
"k.k.l.L.K.K.K.S.] j h a u i a a p a i u % r u a O * a s t * t s r p u p p u p g 9 { C.K.K.K.Z.l.j.l.",
"*.*.>.L.K.K.K.g._ , 4 , , 4 4 4 , 2 3 , , 4 2 8 O O 4 4 < , 3 4 3 4 3 4 4 3 < < 4 } g.K.K.K.V.=.=.*.",
"P L ~ H.K.K.K.g.) > 5 w 7 > > 7 w 7 > > 7 w 7 1 @ @ 1 7 w 7 > > 7 w 5 > > 7 w 7 1 } g.K.K.K.i.L L L ",
">.<.5.I.K.K.K.g.) > } U.y.> > } U.t.> > | U.w.1 @ @ 1 w.U.| > > t.U.} > > t.U.} > } g.K.K.K.m.=.=.h.",
"j.j.k.I.K.H.K.d.) > _ K.| > > } K.| > 1 } K.| 1 @ @ 5 } K.} > > | K.} > 5 | K._ > } g.K.J.K.N.=.j.j.",
"k.j.c.I.K.K.K.g._ : 5 0 6 > > 5 q 5 > > 5 q 5 > @ @ 1 5 0 7 > > 5 q 5 > > 5 q 5 : } G.K.K.K.V.k.l.l.",
">.>.>.J.K.K.H.s.(       ,   <       <         & X X $           ,                 { G.K.K.K.I.=.*.*.",
"P ` O.J.K.K.H.y.] M z y p p y y p p y y O a p s X X a p p + u p s p y p p p p h n ;.G.H.K.K.J.` X.` ",
">.l.c.I.K.K.K.G.-.Z c u r y s s s s s y = y s s O O s s p = y s i p s s s s p c S ;.H.K.K.K.P.l.c.z.",
"=.j.z.I.K.K.K.C.W d s y t i s s s s s y = y s s O O s s p + u p = r p s s s s s g ;.g.H.K.K.L.j.j.k.",
"l.l.z.P.K.K.K.f.] C l p s s p y s s s p = p s s * * s p p = u p s s s s i a s x S ;.g.H.K.K.I.l.k.k.",
"k.k.z.P.K.H.K.g.] - * = t t = = r r r r = = r r X X r t t * = r r u r r = r = * - ;.g.H.K.K.N.k.k.k."
};
