/* XPM */
static char *_4263550646f4a51c0bd57d68e928e04PGdRQKff3nqbF1yv[] = {
/* columns rows colors chars-per-pixel */
"50 50 217 2 ",
"   c #100D0C",
".  c #070D17",
"X  c #0A0D14",
"o  c #090F18",
"O  c #180C18",
"+  c #0E1015",
"@  c #0B121E",
"#  c #151216",
"$  c #15131A",
"%  c #1B171B",
"&  c #26180C",
"*  c #261919",
"=  c #3F250E",
"-  c #2A221A",
";  c #38291C",
":  c #0D1522",
">  c #0F1827",
",  c #0F1929",
"<  c #1B1725",
"1  c #1D1B23",
"2  c #121C2C",
"3  c #131E32",
"4  c #1F1B32",
"5  c #241825",
"6  c #221C2D",
"7  c #3F102D",
"8  c #0F2922",
"9  c #1C252C",
"0  c #142135",
"q  c #16233A",
"w  c #1A273B",
"e  c #272427",
"r  c #2C2522",
"t  c #22212B",
"y  c #2C2A2C",
"u  c #352B25",
"i  c #3E342B",
"p  c #252432",
"a  c #2C2434",
"s  c #2A2A39",
"d  c #332A3A",
"f  c #2E303A",
"g  c #373335",
"h  c #3B3B3C",
"j  c #472F17",
"k  c #593717",
"l  c #493929",
"z  c #533E27",
"x  c #483B36",
"c  c #613F24",
"v  c #1C4E3E",
"b  c #59442D",
"n  c #5A483A",
"m  c #634A2E",
"M  c #644B31",
"N  c #725536",
"B  c #735739",
"V  c #7B5C3B",
"C  c #172640",
"Z  c #192944",
"A  c #1C2D4A",
"S  c #1F314D",
"D  c #1F3252",
"F  c #272C46",
"G  c #352C43",
"H  c #332B4B",
"J  c #283249",
"K  c #3A3145",
"L  c #393449",
"P  c #342E53",
"I  c #203455",
"U  c #22375A",
"Y  c #23395E",
"T  c #383458",
"R  c #263D64",
"E  c #3D3561",
"W  c #463C49",
"Q  c #453A57",
"!  c #305C4F",
"~  c #3C4257",
"^  c #376858",
"/  c #274068",
"(  c #29426B",
")  c #2B4672",
"_  c #444349",
"`  c #4D4B4D",
"'  c #4E524C",
"]  c #4A4658",
"[  c #554B57",
"{  c #585557",
"}  c #695846",
"|  c #695353",
" . c #685A56",
".. c #5A6D59",
"X. c #716554",
"o. c #766454",
"O. c #524664",
"+. c #554967",
"@. c #544D69",
"#. c #594C6D",
"$. c #5A5367",
"%. c #6A5D64",
"&. c #66577B",
"*. c #5E6966",
"=. c #6E6263",
"-. c #6A676A",
";. c #776967",
":. c #7E6C6E",
">. c #677462",
",. c #746C72",
"<. c #756F78",
"1. c #767477",
"2. c #90531A",
"3. c #84623E",
"4. c #AC6521",
"5. c #876644",
"6. c #8D6943",
"7. c #946E45",
"8. c #936D49",
"9. c #977147",
"0. c #9C7449",
"q. c #836B57",
"w. c #A3794D",
"e. c #A87D4E",
"r. c #A57E54",
"t. c #AB7F50",
"y. c #836D63",
"u. c #85726C",
"i. c #8D6472",
"p. c #8D6A75",
"a. c #926C76",
"s. c #9A6C77",
"d. c #867676",
"f. c #8C7B7C",
"g. c #937077",
"h. c #957379",
"j. c #9B757B",
"k. c #927D7A",
"l. c #9D7A7E",
"z. c #A66D79",
"x. c #A4767E",
"c. c #A17B7F",
"v. c #7D806D",
"b. c #AD804F",
"n. c #AC8051",
"m. c #B38554",
"M. c #BB8B57",
"N. c #96817D",
"B. c #B58C61",
"V. c #BD9162",
"C. c #C8955E",
"Z. c #CA965E",
"A. c #CD9962",
"S. c #D39D64",
"D. c #DAA266",
"F. c #D6A069",
"G. c #DDA569",
"H. c #D0A477",
"J. c #E0A669",
"K. c #E6AB6C",
"L. c #E9AD6D",
"P. c #E9AB70",
"I. c #6C5B81",
"U. c #786A88",
"Y. c #8B7E82",
"T. c #9E7D81",
"R. c #A37E81",
"E. c #A97E82",
"W. c #729288",
"Q. c #898389",
"!. c #958383",
"~. c #9B8484",
"^. c #9E8989",
"/. c #948D90",
"(. c #99949C",
"). c #A58283",
"_. c #AB8485",
"`. c #A28688",
"'. c #A48B8C",
"]. c #AB8B8B",
"[. c #B28687",
"{. c #B98487",
"}. c #B18887",
"|. c #BA8688",
" X c #B48A89",
".X c #BC8D8C",
"XX c #AB948B",
"oX c #B3918E",
"OX c #BD918E",
"+X c #A78F92",
"@X c #B58E90",
"#X c #AB9392",
"$X c #B49593",
"%X c #BC9592",
"&X c #B59996",
"*X c #B69A98",
"=X c #BC9C9A",
"-X c #BAA19D",
";X c #9D97A1",
":X c #A39CA7",
">X c #B1ACAF",
",X c #B7B5B9",
"<X c #C08F8D",
"1X c #C1918F",
"2X c #C2918F",
"3X c #C39490",
"4X c #C39692",
"5X c #C49591",
"6X c #C49692",
"7X c #C59893",
"8X c #C59994",
"9X c #C69A94",
"0X c #C59E9A",
"qX c #CDA985",
"wX c #C6A19D",
"eX c #C8A09B",
"rX c #C4A7A3",
/* pixels */
"z.z.z.z.z.i.s.z.z.z.z.s.| z.z.z.z.z.z.| i.i.z.z.z.z.z.z.z.z.z.z.z.z.z.s.i.z.z.z.z.z.z.z.z.z.z.z.z.z.",
"|.{.{.{.[.s.x.R.u. X{. XO.O.;.{.{.{.{.G %.l.|.|.|.|.|.|.|.|.|.|.{.{.{.x.s.{.|.|.|.|.|.|.{.{.{.{.{.{.",
"6X9X4X1X[.p.c..XH =.2X2X] D R $.%X4X:.C ] h..X1X4X2X6X6X2X7X7X6X6X6X.Xl.p.[.<X1X6X1X6X1X6X7X7X6X7X.X",
"6X9X9X6X4Xc.R..X_ I ] :.g : A R ] =.9 A ] j..XOX6X6X2X2X6X7X7X7X7X9X1X Xj. X1X6X1X1X6X6X6X7X7X9X7X6X",
"l.l.R.R.c.p.h.T.=.F I R C : : C I , , A F [ L l.c.l.c.c.x.l.).c.R.R.R.h.p.l.c.c.c.c.c.j.c.l.c.R.).c.",
" XoX=X=X X X[._.}.s q A I D q : 3 3 2 0 : , F ~.[.}._._.a.c. X X*X=XoXoX[.[._._.[.[.[.h.l.[. X$X-X*X",
"%X7X6X6X6X6X6X2X6X%Xh : > 2 0 0 2 , @ , o : , ] _ F I Y @.[.oX6X6X6X6X6X6X4X3X3X2X6X6X_.E..X1X6X6X6X",
".X.X<X1X1X6X2X6X1X4X].9 Z Z 2 @ : @ @ X o Z R U w > I ( ( A 0 h..X<X1X1X6X1X3X3X6X1X2X).l._..X.X1X2X",
"9X7X6X4X6X6X2X7X2X%X~ R I C > : , @ . . , D ( ) Y : 0 R ) D 3 R Z T.4X4X3X6X4X4X1X6X4XE.[.7X9X7X2X6X",
"R.R.c.c.N.c.x.).=.J T F , X 3 A 0 @ q A 0 q D ( / q @ A R S : R D Z R l.c.R.R.R.).).c.a.h.).c.c.c.R.",
"}._._._._.h.j._.k.d.d.^.!.f A 3 . 0 / ) D @ , Z D A o 0 D A . A A 3 ) Z a.E.]. X$X&XoX].%XoX[._._._.",
".X.X1X1X_.h.}.7X7X6X9X7X'.3 2 o o q D / / w - u 3 w r r q q - 9 q > D C J 3X6X6X7X7X4X4X9X4X|.<X1X1X",
".X1X6X9XoXj.}.2X1X4X4X%Xh { N.` D D 0 9 q C g M.B $ l m.i 1 w.B * l w 2 Z f.1X1X1X1X1X6X6X1X<X2X7X7X",
"6X1X6X6X6X).|.2X6X6X6X6X6X1XrXT / / 0 ; V l - C.K.0.0.L.A.e.G.S.e.Z.l # 3 _ 6X6X6X6X1X6X1X6X1X6X6X6X",
").).).).E.a.h.).).N.E.c.E.R.+XJ ) / S y C.G.A.G.L.L.K.K.L.K.P.K.L.L.w.V x w c._.[.N.).).R.E.).).).).",
"_. X].}.[.).c._.).).[._.c.i.+X3 q C w > B K.K.K.K.K.K.K.K.K.K.K.K.L.J.K.5.1 )._.E._.).s.j.).[.oX X_.",
"6X7X7X7X6X6X2X1X1X.X|.1X_.j.#XA A , @ - b.K.K.K.K.K.K.K.K.K.K.K.K.K.K.L.t.i 1X.X|..X Xj.[.6X1X7X7X6X",
"2X6X2X2X2X1X6X1X1X1X6X1X_.j.#XC / I q u A.K.K.K.K.K.K.K.K.K.K.K.K.K.L.L.m.u.1X6X6X3X Xj.[.1X6X1X1X1X",
"6X6X2X2X6X6X1X6X1X7X6X6XOXc.4Xp @ . : - V.K.S.Z.D.L.L.L.K.K.K.K.L.J.S.S.t.=X1X4X6X1X6X_.[.6X1X6X6X6X",
"_._._._._._._._._._._._.c.p.).d.; b 9 i S.Z.9.b.3.b.G.L.K.K.L.L.Z.8.0.w.q.$X_._._._.).s.j._._.)._._.",
"c.E.).c.N.s.j.)._.].XX).).).].f.0.w.5.y M.K.L.V.} - b n.G.L.G.b.l i r.D.y._.).].].].).N. X_.E.).c.E.",
"6X1X<X<X|.h.}.6X7X7X7X6X1X7X7Xy.M.9.o.b 3.K.B.N.W.h 8 X.Z.L.Z...*.8 >.o.^.1X6X6X7X6X1X6X6X9X1X<X<X<X",
"2X6X6X2X.Xj. X1X1X1X1X1X6X1X1Xk.n.3.0.n b D.V.rXW.v ^ qXK.K.L.H.! ! >X .'.3X3X3X1X1X1X1X6X1X6X6X6X1X",
"6X6X6X6X1X_.}.7X7X6X6X7X1X4X4XwXn w.S.V b m.K.qXN.^ v.H.K.G.H.H...>.H.k.).6X6X6X6X6X6X6X6X6X6X6X6X6X",
"[._._._.[.h.l._._._._._.[._._._.+XX.b 6.7.0.S.K.K.S.D.K.K.K.K.K.S.S.S.N.a._._._._._._.)._._.}._._.[.",
"`._.#XXX).).x.R.c.R.R.R.l.p.l.R.).&X-.N 7.7.w.G.L.K.K.K.K.K.K.K.L.P.t.'.T.R.R.R.).c.).a.h.).).].#X].",
"6X7XeXeX4X7X6X2X6X4X3X4X.Xx.OX4X9X9XrXl V 9.0.m.G.L.K.K.K.J.G.K.L.S.q.wX6X3X3X3X2X2X1XE.[.6X7X9XeX9X",
"2X2X2X2X4X6X2X6X1X.X1X.X}.l.1X4X4X9XoXd - l N 3.m.G.L.K.M.b.A.K.A.q.-X1X3X3X3X<X2X2X Xc.[.6X1X1X1X4X",
"6X6X6X6X7X4X6X1X4X.X3X].j.j.3X3X0X:.< L @.Q $ * l B n.A.A.Z.m.V u.wX6X6X7X1X1X.X2XoX).h.}.1X6X6X4X6X",
"[.}.}.}.[.[.}.}._.[.[. XE.i.[.@X%.G Q G O.&.6 4 G - j u i - - f ^.{.}.}.}.}.}.}.}. X[.h.c.}.}.}.}.}.",
"l.c.c.l.c.p.h.c.).`.].+X`.j.R.Y.O Q I.#.G G $ O E x 5.x P 4 1 ] [ +Xc.j.a.l.c.`.'.#X'.j.l.l.c.c.l.c.",
".X.X1X.X[.h.[.4X4X9X0X0X9X3X9X%.M l O.I.G #.G 1 F Q w.M T p 9 t y u.=Xc.l.1X6X7X7XeX7X7X1X1X.X.X1XOX",
".X1X1X7X|.g.}.2X2X6X1X7X1X2X-Xm 0.m.M d a ] 6 p 4 P } n H 6 a - l d x ;.l.6X1X1X6X1X1X6X1X1X1X1X6X6X",
"7X1X7X7X9XN. X6X2X7X7X2X6X2XN.b 6.e.8.O   1 a s L ] $.+.] d t < x V M z :.6X1X6X6X6X6X1X6X6X6X1X7X7X",
" X X}. X|.j.c. X X X X X1X$X` x W W W a # a H +.#.I.U.I.&.O.K O 5.7.A.B b }. X X X X X X X|. X[. X X",
"~._.'.c.N.j.j.l.c.j.c.].o.l H O.+.+.O.O.a < K +.+.O.#.#.#.O.d * m.5.t.n.m.N.l.l.l.l.j.h.a.c.N.].`.N.",
"1X9XeX6X4X1X1X1X.X.X|.$X2.2.O % 6 6 6 <   O $ O 5 P P P 5 7 7 O 6.M 6.G.0.%X1X.X.X|..Xh._.1X7XeX9X4X",
"1X7X1X6X4X1X6X2X<X3X.X&Xm k $ 4 t t t # & # 6 $ O P Q H 4 7 d a ; z N 3.;.1X1XOX1X1X.Xh. X1X1X1X6X1X",
"6X1X6X1X6X2X6X2X6X9X6X4X=X!. .$ t 5 % 1 < $ 5 j * O 5 O a H K d  .:. .`.6X1X6X7X7X1X1X_. X1X6X6X1X9X",
".X X.X X X.X.X X X X X.X[.a.=Xn M B b y 5 + & 4.k 6 5 O < a L K :.%XoX.X.X X.X X X.X Xx.c. XOX X X X",
"l.l.l.l.j.a.a.c.R.`.'.T.j.h.T.^.} } z #     = 2.z 1.U.,.-.{ ~ e d /.'.T.p.T.T.~.'.).l.h.T.l.j.l.l.l.",
"OX.X.X.X|.j._.1X6X0X0X1XOX6X6X%X.X=Xj.] # X & j r 1.(.:X,X,X:XQ.,.%.%.,.,.d.^.#X-X-X0XOX%X%X3X.X.XOX",
"1X1X1X1X Xh.[.<X3X6X4X6X2X1X4X1X2X.X4XXX# # u 3.x ] _ x ' o.Q./.(.;X:X,X>XQ.U.1.-.` !.6X3X3X3X.X1X1X",
"1X1X7X7X1Xc.h.N.|..X1X6X6X6X1X6X6X6X6X'.; N m.Z.y.eX!.b e.m.3. .#X^.Q.Q.Q.Q.(./.1.=X9X6X3X3X3X6X9X1X",
"OX.X.X.X.Xx.c. X.X%XOXOX.X.X.XoX.X.X X=.{ ..X.M k.%X^.x } o. .=.%X@X%X@X`.$X&X#XwXoX.X.X.X.X.X.X.X.X",
"l.~.^.`.N.h.h.j.l.l.l.l.h.p.j.l.l.`.'.-.' i ~ h k.l.!._ ` h g { `.`.T.T.g.l.j.T.l.l.l.a.a.l.l.~.`.`.",
"OX7XeX0X6X%XOXOXoXOXOXOX{.j. X6X4X0XrX` -.1.h y &XOX&X' ..{ L  .rXwX4X4XOXOXOXOX.XOX.Xc.E.4X6X6XeX9X",
".X1X1X1X6X1X1X6X1X1X1X1X1Xh._.<X<X6XXX# >.,X1.1.!.1X'.f :X,X*.-.f.4X4X4X6X1X1X4X1X4X6X).j..X.XOX6X2X",
"7X7X7X1X1X1X7X1X1X6X1X6X1Xh.[.1X7X7XeXf.g t y y =.7X'.y t y t 1 Y.6X6X1X6X6X1X6X7X2X6X[.x.2X6X6X6X2X",
"7X7X7XOX7X1X7X1X6X1X6X1XOXj.OX6X7X6X6X1XeXXX:.:.=X7X6XrX^.~.^.&XeX1X1X6X1X1X6X1X2X1X2XN.[.6X6X6X6X2X"
};
